<svg
  style="position: absolute; width: 0; height: 0;"
  width="0"
  height="0"
  version="1.1"
  xmlns="http://www.w3.org/2000/svg"
  xmlns:xlink="http://www.w3.org/1999/xlink"
>
  <defs>
    <symbol id="icon-dot-single" viewBox="0 0 20 20">
      <path d="M7.8,10c0,1.215,0.986,2.2,2.201,2.2S12.2,11.214,12.2,10c0-1.215-0.984-2.199-2.199-2.199S7.8,8.785,7.8,10  z"/>
    </symbol>

    <symbol id="icon-chevron-thin-down" viewBox="0 0 20 20" enable-background="new 0 0 20 20">
      <path d="M17.418,6.109c0.272-0.268,0.709-0.268,0.979,0s0.271,0.701,0,0.969l-7.908,7.83 c-0.27,0.268-0.707,0.268-0.979,0l-7.908-7.83c-0.27-0.268-0.27-0.701,0-0.969c0.271-0.268,0.709-0.268,0.979,0L10,13.25 L17.418,6.109z"/>
    </symbol>
  </defs>
</svg>
