<svg
  style="position: absolute; width: 0; height: 0;"
  width="0"
  height="0"
  version="1.1"
  xmlns="http://www.w3.org/2000/svg"
  xmlns:xlink="http://www.w3.org/1999/xlink"
>
  <defs>
    <symbol id="icon-chevron-thin-down" viewBox="0 0 20 20" enable-background="new 0 0 20 20">
      <path d="M17.418,6.109c0.272-0.268,0.709-0.268,0.979,0s0.271,0.701,0,0.969l-7.908,7.83 c-0.27,0.268-0.707,0.268-0.979,0l-7.908-7.83c-0.27-0.268-0.27-0.701,0-0.969c0.271-0.268,0.709-0.268,0.979,0L10,13.25 L17.418,6.109z"/>
    </symbol>

    <symbol id="icon-cross" viewBox="0 0 20 20">
      <path d="M14.348,14.849c-0.469,0.469-1.229,0.469-1.697,0L10,11.819l-2.651,3.029c-0.469,0.469-1.229,0.469-1.697,0
        c-0.469-0.469-0.469-1.229,0-1.697l2.758-3.15L5.651,6.849c-0.469-0.469-0.469-1.228,0-1.697s1.228-0.469,1.697,0L10,8.183
        l2.651-3.031c0.469-0.469,1.228-0.469,1.697,0s0.469,1.229,0,1.697l-2.758,3.152l2.758,3.15
        C14.817,13.62,14.817,14.38,14.348,14.849z"/>
    </symbol>

    <symbol id="icon-dot-single" viewBox="0 0 20 20">
      <path d="M7.8,10c0,1.215,0.986,2.2,2.201,2.2S12.2,11.214,12.2,10c0-1.215-0.984-2.199-2.199-2.199S7.8,8.785,7.8,10  z"/>
    </symbol>

    <symbol id="icon-three-dots" viewBox="0 0 20 20">
      <path d="M10.001,7.8C8.786,7.8,7.8,8.785,7.8,10s0.986,2.2,2.201,2.2S12.2,11.215,12.2,10S11.216,7.8,10.001,7.8z
        M3.001,7.8C1.786,7.8,0.8,8.785,0.8,10s0.986,2.2,2.201,2.2S5.2,11.214,5.2,10S4.216,7.8,3.001,7.8z M17.001,7.8
        C15.786,7.8,14.8,8.785,14.8,10s0.986,2.2,2.201,2.2S19.2,11.215,19.2,10S18.216,7.8,17.001,7.8z"/>
    </symbol>

    <symbol id="icon-tick" viewBox="0 0 20 20">
      <path d="M8.294,16.998c-0.435,0-0.847-0.203-1.111-0.553L3.61,11.724c-0.465-0.613-0.344-1.486,0.27-1.951
        c0.615-0.467,1.488-0.344,1.953,0.27l2.351,3.104l5.911-9.492c0.407-0.652,1.267-0.852,1.921-0.445
        c0.653,0.406,0.854,1.266,0.446,1.92L9.478,16.34c-0.242,0.391-0.661,0.635-1.12,0.656C8.336,16.998,8.316,16.998,8.294,16.998z"/>
    </symbol>

    <symbol id="icon-trash" viewBox="0 0 20 20">
      <path d="M3.389,7.113L4.49,18.021C4.551,18.482,6.777,19.998,10,20c3.225-0.002,5.451-1.518,5.511-1.979
        l1.102-10.908C14.929,8.055,12.412,8.5,10,8.5C7.59,8.5,5.072,8.055,3.389,7.113z M13.168,1.51l-0.859-0.951
        C11.977,0.086,11.617,0,10.916,0H9.085c-0.7,0-1.061,0.086-1.392,0.559L6.834,1.51C4.264,1.959,2.4,3.15,2.4,4.029v0.17
        C2.4,5.746,5.803,7,10,7c4.198,0,7.601-1.254,7.601-2.801v-0.17C17.601,3.15,15.738,1.959,13.168,1.51z M12.07,4.34L11,3H9
        L7.932,4.34h-1.7c0,0,1.862-2.221,2.111-2.522C8.533,1.588,8.727,1.5,8.979,1.5h2.043c0.253,0,0.447,0.088,0.637,0.318
        C11.907,2.119,13.77,4.34,13.77,4.34H12.07z"/>
    </symbol>
  </defs>
</svg>
