<svg
  style="position: absolute; width: 0; height: 0;"
  width="0"
  height="0"
  version="1.1"
  xmlns="http://www.w3.org/2000/svg"
  xmlns:xlink="http://www.w3.org/1999/xlink"
>
  <defs>
    <symbol id="icon-area-chart" viewBox="64 64 896 896">
      <path d="M888 792H200V168c0-4.4-3.6-8-8-8h-56c-4.4 0-8 3.6-8 8v688c0 4.4 3.6 8 8 8h752c4.4 0 8-3.6 8-8v-56c0-4.4-3.6-8-8-8zm-616-64h536c4.4 0 8-3.6 8-8V284c0-7.2-8.7-10.7-13.7-5.7L592 488.6l-125.4-124a8.03 8.03 0 00-11.3 0l-189 189.6a7.87 7.87 0 00-2.3 5.6V720c0 4.4 3.6 8 8 8z" />
    </symbol>
    <symbol id="icon-arrowright" viewBox="0 0 24 24">
      <path d="M15,5l-1.41,1.41L18.17,11H2V13h16.17l-4.59,4.59L15,19l7-7L15,5z"/>
    </symbol>
    <symbol id="icon-caret-down" viewBox="0 0 1024 1024">
      <path d="M840.4 300H183.6c-19.7 0-30.7 20.8-18.5 35l328.4 380.8c9.4 10.9 27.5 10.9 37 0L858.9 335c12.2-14.2 1.2-35-18.5-35z" />
    </symbol>
    <symbol id="icon-check-circle" viewBox="64 64 896 896">
      <path d="M699 353h-46.9c-10.2 0-19.9 4.9-25.9 13.3L469 584.3l-71.2-98.8c-6-8.3-15.6-13.3-25.9-13.3H325c-6.5 0-10.3 7.4-6.5 12.7l124.6 172.8a31.8 31.8 0 0051.7 0l210.6-292c3.9-5.3.1-12.7-6.4-12.7z" />
      <path d="M512 64C264.6 64 64 264.6 64 512s200.6 448 448 448 448-200.6 448-448S759.4 64 512 64zm0 820c-205.4 0-372-166.6-372-372s166.6-372 372-372 372 166.6 372 372-166.6 372-372 372z" />
    </symbol>
    <symbol id="icon-chevron-thin-down" viewBox="0 0 20 20" enable-background="new 0 0 20 20">
      <path d="M17.418,6.109c0.272-0.268,0.709-0.268,0.979,0s0.271,0.701,0,0.969l-7.908,7.83 c-0.27,0.268-0.707,0.268-0.979,0l-7.908-7.83c-0.27-0.268-0.27-0.701,0-0.969c0.271-0.268,0.709-0.268,0.979,0L10,13.25 L17.418,6.109z"/>
    </symbol>
    <symbol id="icon-close" viewBox="0 0 1024 1024">
      <path d="M443.6,387.1L312.4,255.4l131.5-130c5.4-5.4,5.4-14.2,0-19.6l-37.4-37.6c-2.6-2.6-6.1-4-9.8-4c-3.7,0-7.2,1.5-9.8,4  L256,197.8L124.9,68.3c-2.6-2.6-6.1-4-9.8-4c-3.7,0-7.2,1.5-9.8,4L68,105.9c-5.4,5.4-5.4,14.2,0,19.6l131.5,130L68.4,387.1  c-2.6,2.6-4.1,6.1-4.1,9.8c0,3.7,1.4,7.2,4.1,9.8l37.4,37.6c2.7,2.7,6.2,4.1,9.8,4.1c3.5,0,7.1-1.3,9.8-4.1L256,313.1l130.7,131.1  c2.7,2.7,6.2,4.1,9.8,4.1c3.5,0,7.1-1.3,9.8-4.1l37.4-37.6c2.6-2.6,4.1-6.1,4.1-9.8C447.7,393.2,446.2,389.7,443.6,387.1z"/>
    </symbol>
    <svg id="icon-cluster" viewBox="64 64 896 896">
      <path d="M888 680h-54V540H546v-92h238c8.8 0 16-7.2 16-16V168c0-8.8-7.2-16-16-16H240c-8.8 0-16 7.2-16 16v264c0 8.8 7.2 16 16 16h238v92H190v140h-54c-4.4 0-8 3.6-8 8v176c0 4.4 3.6 8 8 8h176c4.4 0 8-3.6 8-8V688c0-4.4-3.6-8-8-8h-54v-72h220v72h-54c-4.4 0-8 3.6-8 8v176c0 4.4 3.6 8 8 8h176c4.4 0 8-3.6 8-8V688c0-4.4-3.6-8-8-8h-54v-72h220v72h-54c-4.4 0-8 3.6-8 8v176c0 4.4 3.6 8 8 8h176c4.4 0 8-3.6 8-8V688c0-4.4-3.6-8-8-8zM256 805.3c0 1.5-1.2 2.7-2.7 2.7h-58.7c-1.5 0-2.7-1.2-2.7-2.7v-58.7c0-1.5 1.2-2.7 2.7-2.7h58.7c1.5 0 2.7 1.2 2.7 2.7v58.7zm288 0c0 1.5-1.2 2.7-2.7 2.7h-58.7c-1.5 0-2.7-1.2-2.7-2.7v-58.7c0-1.5 1.2-2.7 2.7-2.7h58.7c1.5 0 2.7 1.2 2.7 2.7v58.7zM288 384V216h448v168H288zm544 421.3c0 1.5-1.2 2.7-2.7 2.7h-58.7c-1.5 0-2.7-1.2-2.7-2.7v-58.7c0-1.5 1.2-2.7 2.7-2.7h58.7c1.5 0 2.7 1.2 2.7 2.7v58.7zM360 300a40 40 0 1080 0 40 40 0 10-80 0z" />
    </svg>
    <symbol id="icon-cross" viewBox="0 0 20 20">
      <path d="M14.348,14.849c-0.469,0.469-1.229,0.469-1.697,0L10,11.819l-2.651,3.029c-0.469,0.469-1.229,0.469-1.697,0
        c-0.469-0.469-0.469-1.229,0-1.697l2.758-3.15L5.651,6.849c-0.469-0.469-0.469-1.228,0-1.697s1.228-0.469,1.697,0L10,8.183
        l2.651-3.031c0.469-0.469,1.228-0.469,1.697,0s0.469,1.229,0,1.697l-2.758,3.152l2.758,3.15
        C14.817,13.62,14.817,14.38,14.348,14.849z"/>
    </symbol>
    <symbol id="icon-database" viewBox="64 64 896 896">
      <path d="M832 64H192c-17.7 0-32 14.3-32 32v832c0 17.7 14.3 32 32 32h640c17.7 0 32-14.3 32-32V96c0-17.7-14.3-32-32-32zm-600 72h560v208H232V136zm560 480H232V408h560v208zm0 272H232V680h560v208zM304 240a40 40 0 1080 0 40 40 0 10-80 0zm0 272a40 40 0 1080 0 40 40 0 10-80 0zm0 272a40 40 0 1080 0 40 40 0 10-80 0z" />
    </symbol>
    <symbol id="icon-dot-single" viewBox="0 0 20 20">
      <path d="M7.8,10c0,1.215,0.986,2.2,2.201,2.2S12.2,11.214,12.2,10c0-1.215-0.984-2.199-2.199-2.199S7.8,8.785,7.8,10  z"/>
    </symbol>
    <symbol id="icon-folder" viewBox="64 64 896 896">
      <path d="M880 298.4H521L403.7 186.2a8.15 8.15 0 00-5.5-2.2H144c-17.7 0-32 14.3-32 32v592c0 17.7 14.3 32 32 32h736c17.7 0 32-14.3 32-32V330.4c0-17.7-14.3-32-32-32zM840 768H184V256h188.5l119.6 114.4H840V768z" />
    </symbol>
    <symbol id="icon-hamburger-menu" viewBox="0 0 20 20">
      <path d="M0 3h20v2H0V3zm0 6h20v2H0V9zm0 6h20v2H0v-2z" />
    </symbol>
    <symbol id="icon-newwindow" viewBox="0 0 32 32">
       <path d="M 25.980469 2.9902344 A 1.0001 1.0001 0 0 0 25.869141 3 L 20 3 A 1.0001 1.0001 0 1 0 20 5 L 23.585938 5 L 13.292969 15.292969 A 1.0001 1.0001 0 1 0 14.707031 16.707031 L 25 6.4140625 L 25 10 A 1.0001 1.0001 0 1 0 27 10 L 27 4.1269531 A 1.0001 1.0001 0 0 0 25.980469 2.9902344 z M 6 7 C 4.9069372 7 4 7.9069372 4 9 L 4 24 C 4 25.093063 4.9069372 26 6 26 L 21 26 C 22.093063 26 23 25.093063 23 24 L 23 14 L 23 11.421875 L 21 13.421875 L 21 16 L 21 24 L 6 24 L 6 9 L 14 9 L 16 9 L 16.578125 9 L 18.578125 7 L 16 7 L 14 7 L 6 7 z"/>
    </symbol>
    <symbol id="icon-paperclip" viewBox="64 64 896 896">
      <path d="M779.3 196.6c-94.2-94.2-247.6-94.2-341.7 0l-261 260.8c-1.7 1.7-2.6 4-2.6 6.4s.9 4.7 2.6 6.4l36.9 36.9a9 9 0 0012.7 0l261-260.8c32.4-32.4 75.5-50.2 121.3-50.2s88.9 17.8 121.2 50.2c32.4 32.4 50.2 75.5 50.2 121.2 0 45.8-17.8 88.8-50.2 121.2l-266 265.9-43.1 43.1c-40.3 40.3-105.8 40.3-146.1 0-19.5-19.5-30.2-45.4-30.2-73s10.7-53.5 30.2-73l263.9-263.8c6.7-6.6 15.5-10.3 24.9-10.3h.1c9.4 0 18.1 3.7 24.7 10.3 6.7 6.7 10.3 15.5 10.3 24.9 0 9.3-3.7 18.1-10.3 24.7L372.4 653c-1.7 1.7-2.6 4-2.6 6.4s.9 4.7 2.6 6.4l36.9 36.9a9 9 0 0012.7 0l215.6-215.6c19.9-19.9 30.8-46.3 30.8-74.4s-11-54.6-30.8-74.4c-41.1-41.1-107.9-41-149 0L463 364 224.8 602.1A172.22 172.22 0 00174 724.8c0 46.3 18.1 89.8 50.8 122.5 33.9 33.8 78.3 50.7 122.7 50.7 44.4 0 88.8-16.9 122.6-50.7l309.2-309C824.8 492.7 850 432 850 367.5c.1-64.6-25.1-125.3-70.7-170.9z" />
    </symbol>
    <symbol id="icon-pen" viewBox="0 0 1024 1024">
      <path d="M880 836H144c-17.7 0-32 14.3-32 32v36c0 4.4 3.6 8 8 8h784c4.4 0 8-3.6 8-8v-36c0-17.7-14.3-32-32-32zm-622.3-84c2 0 4-.2 6-.5L431.9 722c2-.4 3.9-1.3 5.3-2.8l423.9-423.9a9.96 9.96 0 0 0 0-14.1L694.9 114.9c-1.9-1.9-4.4-2.9-7.1-2.9s-5.2 1-7.1 2.9L256.8 538.8c-1.5 1.5-2.4 3.3-2.8 5.3l-29.5 168.2a33.5 33.5 0 0 0 9.4 29.8c6.6 6.4 14.9 9.9 23.8 9.9z"/>
    </symbol>
    <symbol id="icon-person-outline" viewBox="64 64 896 896">
      <path d="M858.5 763.6a374 374 0 00-80.6-119.5 375.63 375.63 0 00-119.5-80.6c-.4-.2-.8-.3-1.2-.5C719.5 518 760 444.7 760 362c0-137-111-248-248-248S264 225 264 362c0 82.7 40.5 156 102.8 201.1-.4.2-.8.3-1.2.5-44.8 18.9-85 46-119.5 80.6a375.63 375.63 0 00-80.6 119.5A371.7 371.7 0 00136 901.8a8 8 0 008 8.2h60c4.4 0 7.9-3.5 8-7.8 2-77.2 33-149.5 87.8-204.3 56.7-56.7 132-87.9 212.2-87.9s155.5 31.2 212.2 87.9C779 752.7 810 825 812 902.2c.1 4.4 3.6 7.8 8 7.8h60a8 8 0 008-8.2c-1-47.8-10.9-94.3-29.5-138.2zM512 534c-45.9 0-89.1-17.9-121.6-50.4S340 407.9 340 362c0-45.9 17.9-89.1 50.4-121.6S466.1 190 512 190s89.1 17.9 121.6 50.4S684 316.1 684 362c0 45.9-17.9 89.1-50.4 121.6S557.9 534 512 534z" />
    </symbol>
    <symbol id="icon-plus" viewBox="64 64 896 896">
      <path d="M482 152h60q8 0 8 8v704q0 8-8 8h-60q-8 0-8-8V160q0-8 8-8z" />
      <path d="M176 474h672q8 0 8 8v60q0 8-8 8H176q-8 0-8-8v-60q0-8 8-8z" />
    </symbol>
    <symbol id="icon-read" viewBox="64 64 896 896">
      <path d="M928 161H699.2c-49.1 0-97.1 14.1-138.4 40.7L512 233l-48.8-31.3A255.2 255.2 0 00324.8 161H96c-17.7 0-32 14.3-32 32v568c0 17.7 14.3 32 32 32h228.8c49.1 0 97.1 14.1 138.4 40.7l44.4 28.6c1.3.8 2.8 1.3 4.3 1.3s3-.4 4.3-1.3l44.4-28.6C602 807.1 650.1 793 699.2 793H928c17.7 0 32-14.3 32-32V193c0-17.7-14.3-32-32-32zM324.8 721H136V233h188.8c35.4 0 69.8 10.1 99.5 29.2l48.8 31.3 6.9 4.5v462c-47.6-25.6-100.8-39-155.2-39zm563.2 0H699.2c-54.4 0-107.6 13.4-155.2 39V298l6.9-4.5 48.8-31.3c29.7-19.1 64.1-29.2 99.5-29.2H888v488zM396.9 361H211.1c-3.9 0-7.1 3.4-7.1 7.5v45c0 4.1 3.2 7.5 7.1 7.5h185.7c3.9 0 7.1-3.4 7.1-7.5v-45c.1-4.1-3.1-7.5-7-7.5zm223.1 7.5v45c0 4.1 3.2 7.5 7.1 7.5h185.7c3.9 0 7.1-3.4 7.1-7.5v-45c0-4.1-3.2-7.5-7.1-7.5H627.1c-3.9 0-7.1 3.4-7.1 7.5zM396.9 501H211.1c-3.9 0-7.1 3.4-7.1 7.5v45c0 4.1 3.2 7.5 7.1 7.5h185.7c3.9 0 7.1-3.4 7.1-7.5v-45c.1-4.1-3.1-7.5-7-7.5zm416 0H627.1c-3.9 0-7.1 3.4-7.1 7.5v45c0 4.1 3.2 7.5 7.1 7.5h185.7c3.9 0 7.1-3.4 7.1-7.5v-45c.1-4.1-3.1-7.5-7-7.5z" />
    </symbol>
    <symbol id="icon-three-dots" viewBox="0 0 20 20">
      <path d="M10.001,7.8C8.786,7.8,7.8,8.785,7.8,10s0.986,2.2,2.201,2.2S12.2,11.215,12.2,10S11.216,7.8,10.001,7.8z
        M3.001,7.8C1.786,7.8,0.8,8.785,0.8,10s0.986,2.2,2.201,2.2S5.2,11.214,5.2,10S4.216,7.8,3.001,7.8z M17.001,7.8
        C15.786,7.8,14.8,8.785,14.8,10s0.986,2.2,2.201,2.2S19.2,11.215,19.2,10S18.216,7.8,17.001,7.8z"/>
    </symbol>
    <symbol id="icon-tick" viewBox="0 0 20 20">
      <path d="M8.294,16.998c-0.435,0-0.847-0.203-1.111-0.553L3.61,11.724c-0.465-0.613-0.344-1.486,0.27-1.951
        c0.615-0.467,1.488-0.344,1.953,0.27l2.351,3.104l5.911-9.492c0.407-0.652,1.267-0.852,1.921-0.445
        c0.653,0.406,0.854,1.266,0.446,1.92L9.478,16.34c-0.242,0.391-0.661,0.635-1.12,0.656C8.336,16.998,8.316,16.998,8.294,16.998z"/>
    </symbol>
    <symbol id="icon-trash" viewBox="0 0 20 20">
      <path d="M3.389,7.113L4.49,18.021C4.551,18.482,6.777,19.998,10,20c3.225-0.002,5.451-1.518,5.511-1.979
        l1.102-10.908C14.929,8.055,12.412,8.5,10,8.5C7.59,8.5,5.072,8.055,3.389,7.113z M13.168,1.51l-0.859-0.951
        C11.977,0.086,11.617,0,10.916,0H9.085c-0.7,0-1.061,0.086-1.392,0.559L6.834,1.51C4.264,1.959,2.4,3.15,2.4,4.029v0.17
        C2.4,5.746,5.803,7,10,7c4.198,0,7.601-1.254,7.601-2.801v-0.17C17.601,3.15,15.738,1.959,13.168,1.51z M12.07,4.34L11,3H9
        L7.932,4.34h-1.7c0,0,1.862-2.221,2.111-2.522C8.533,1.588,8.727,1.5,8.979,1.5h2.043c0.253,0,0.447,0.088,0.637,0.318
        C11.907,2.119,13.77,4.34,13.77,4.34H12.07z"/>
    </symbol>
    <symbol id="icon-user-disconnect" viewBox="64 64 896 896">
      <path d="M678.3 655.4c24.2-13 51.9-20.4 81.4-20.4h.1c3 0 4.4-3.6 2.2-5.6a371.67 371.67 0 00-103.7-65.8c-.4-.2-.8-.3-1.2-.5C719.2 518 759.6 444.7 759.6 362c0-137-110.8-248-247.5-248S264.7 225 264.7 362c0 82.7 40.4 156 102.6 201.1-.4.2-.8.3-1.2.5-44.7 18.9-84.8 46-119.3 80.6a373.42 373.42 0 00-80.4 119.5A373.6 373.6 0 00137 901.8a8 8 0 008 8.2h59.9c4.3 0 7.9-3.5 8-7.8 2-77.2 32.9-149.5 87.6-204.3C357 641.2 432.2 610 512.2 610c56.7 0 111.1 15.7 158 45.1a8.1 8.1 0 008.1.3zM512.2 534c-45.8 0-88.9-17.9-121.4-50.4A171.2 171.2 0 01340.5 362c0-45.9 17.9-89.1 50.3-121.6S466.3 190 512.2 190s88.9 17.9 121.4 50.4A171.2 171.2 0 01683.9 362c0 45.9-17.9 89.1-50.3 121.6C601.1 516.1 558 534 512.2 534zM880 772H640c-4.4 0-8 3.6-8 8v56c0 4.4 3.6 8 8 8h240c4.4 0 8-3.6 8-8v-56c0-4.4-3.6-8-8-8z" />
    </symbol>
    <symbol id="icon-at-line" viewBox="0 0 24 24">
      <path d="M20 12a8 8 0 1 0-3.562 6.657l1.11 1.664A9.953 9.953 0 0 1 12 22C6.477 22 2 17.523 2 12S6.477 2 12 2s10 4.477 10 10v1.5a3.5 3.5 0 0 1-6.396 1.966A5 5 0 1 1 15 8H17v5.5a1.5 1.5 0 0 0 3 0V12zm-8-3a3 3 0 1 0 0 6 3 3 0 0 0 0-6z"/>
    </symbol>
    <symbol id="icon-arrow-up" viewBox="0 0 24 24">
      <path d="M13 7.828V20h-2V7.828l-5.364 5.364-1.414-1.414L12 4l7.778 7.778-1.414 1.414L13 7.828z"/>
    </symbol>
    <symbol id="icon-search" viewBox="0 0 24 24">
        <path d="M18.031 16.617l4.283 4.282-1.415 1.415-4.282-4.283A8.96 8.96 0 0 1 11 20c-4.968 0-9-4.032-9-9s4.032-9 9-9 9 4.032 9 9a8.96 8.96 0 0 1-1.969 5.617zm-2.006-.742A6.977 6.977 0 0 0 18 11c0-3.868-3.133-7-7-7-3.868 0-7 3.132-7 7 0 3.867 3.132 7 7 7a6.977 6.977 0 0 0 4.875-1.975l.15-.15z"/>
    </symbol>
    <symbol id="icon-cross" viewBox="0 0 24 24">
        <path d="M12 10.586l4.95-4.95 1.414 1.414-4.95 4.95 4.95 4.95-1.414 1.414-4.95-4.95-4.95 4.95-1.414-1.414 4.95-4.95-4.95-4.95L7.05 5.636z"/>
    </symbol>
    <symbol id="icon-mail-sent" viewBox="0 0 24 24">
      <path d="M22 20.007a1 1 0 0 1-.992.993H2.992A.993.993 0 0 1 2 20.007V19h18V7.3l-8 7.2-10-9V4a1 1 0 0 1 1-1h18a1 1 0 0 1 1 1v16.007zM4.434 5L12 11.81 19.566 5H4.434zM0 15h8v2H0v-2zm0-5h5v2H0v-2z"/>
    </symbol>
    <symbol id="icon-database" viewBox="0 0 24 24">
      <path d="M5 12.5c0 .313.461.858 1.53 1.393C7.914 14.585 9.877 15 12 15c2.123 0 4.086-.415 5.47-1.107 1.069-.535 1.53-1.08 1.53-1.393v-2.171C17.35 11.349 14.827 12 12 12s-5.35-.652-7-1.671V12.5zm14 2.829C17.35 16.349 14.827 17 12 17s-5.35-.652-7-1.671V17.5c0 .313.461.858 1.53 1.393C7.914 19.585 9.877 20 12 20c2.123 0 4.086-.415 5.47-1.107 1.069-.535 1.53-1.08 1.53-1.393v-2.171zM3 17.5v-10C3 5.015 7.03 3 12 3s9 2.015 9 4.5v10c0 2.485-4.03 4.5-9 4.5s-9-2.015-9-4.5zm9-7.5c2.123 0 4.086-.415 5.47-1.107C18.539 8.358 19 7.813 19 7.5c0-.313-.461-.858-1.53-1.393C16.086 5.415 14.123 5 12 5c-2.123 0-4.086.415-5.47 1.107C5.461 6.642 5 7.187 5 7.5c0 .313.461.858 1.53 1.393C7.914 9.585 9.877 10 12 10z"/>
    </symbol>
    <symbol id="icon-download" viewBox="0 0 24 24">
      <path d="M4 19h16v-7h2v8a1 1 0 0 1-1 1H3a1 1 0 0 1-1-1v-8h2v7zM14 9h5l-7 7-7-7h5V3h4v6z"/>
    </symbol>
    <symbol id="icon-draft" viewBox="0 0 24 24">
      <path d="M20 2c.552 0 1 .448 1 1v3.757l-2 2V4H5v16h14v-2.758l2-2V21c0 .552-.448 1-1 1H4c-.552 0-1-.448-1-1V3c0-.552.448-1 1-1h16zm1.778 6.808l1.414 1.414L15.414 18l-1.416-.002.002-1.412 7.778-7.778zM13 12v2H8v-2h5zm3-4v2H8V8h8z"/>
    </symbol>
    <symbol id="icon-edit" viewBox="0 0 24 24">
      <path d="M6.414 16L16.556 5.858l-1.414-1.414L5 14.586V16h1.414zm.829 2H3v-4.243L14.435 2.322a1 1 0 0 1 1.414 0l2.829 2.829a1 1 0 0 1 0 1.414L7.243 18zM3 20h18v2H3v-2z"/>
    </symbol>
    <symbol id="icon-add" viewBox="0 0 24 24">
      <path d="M11 11V5h2v6h6v2h-6v6h-2v-6H5v-2z"/>
    </symbol>
    <symbol id="icon-send-plane-fill" viewBox="0 0 24 24">
      <path d="M1.946 9.315c-.522-.174-.527-.455.01-.634l19.087-6.362c.529-.176.832.12.684.638l-5.454 19.086c-.15.529-.455.547-.679.045L12 14l6-8-8 6-8.054-2.685z"/>
    </symbol>
    <symbol id="icon-discuss-line" viewBox="0 0 24 24">
      <path d="M14 22.5L11.2 19H6a1 1 0 0 1-1-1V7.103a1 1 0 0 1 1-1h16a1 1 0 0 1 1 1V18a1 1 0 0 1-1 1h-5.2L14 22.5zm1.839-5.5H21V8.103H7V17H12.161L14 19.298 15.839 17zM2 2h17v2H3v11H1V3a1 1 0 0 1 1-1z"/>
    </symbol>
    <symbol id="icon-edit-file" viewBox="0 0 24 24">
      <path d="M21 6.757l-2 2V4h-9v5H5v11h14v-2.757l2-2v5.765a.993.993 0 0 1-.993.992H3.993A1 1 0 0 1 3 20.993V8l6.003-6h10.995C20.55 2 21 2.455 21 2.992v3.765zm.778 2.05l1.414 1.415L15.414 18l-1.416-.002.002-1.412 7.778-7.778z"/>
    </symbol>
    <symbol id="icon-ri-eye-fill" viewBox="0 0 24 24">
      <path d="M1.181 12C2.121 6.88 6.608 3 12 3c5.392 0 9.878 3.88 10.819 9-.94 5.12-5.427 9-10.819 9-5.392 0-9.878-3.88-10.819-9zM12 17a5 5 0 1 0 0-10 5 5 0 0 0 0 10zm0-2a3 3 0 1 1 0-6 3 3 0 0 1 0 6z"/>
    </symbol>
    <symbol id="icon-ri-user-follow-line" viewBox="0 0 24 24">
      <path d="M14 14.252v2.09A6 6 0 0 0 6 22l-2-.001a8 8 0 0 1 10-7.748zM12 13c-3.315 0-6-2.685-6-6s2.685-6 6-6 6 2.685 6 6-2.685 6-6 6zm0-2c2.21 0 4-1.79 4-4s-1.79-4-4-4-4 1.79-4 4 1.79 4 4 4zm5.793 8.914l3.535-3.535 1.415 1.414-4.95 4.95-3.536-3.536 1.415-1.414 2.12 2.121z"/>
    </symbol>
    <symbol id="icon-ri-notification-4-line" viewBox="0 0 24 24">
      <path d="M18 10a6 6 0 1 0-12 0v8h12v-8zm2 8.667l.4.533a.5.5 0 0 1-.4.8H4a.5.5 0 0 1-.4-.8l.4-.533V10a8 8 0 1 1 16 0v8.667zM9.5 21h5a2.5 2.5 0 1 1-5 0z"/>
    </symbol>
    <symbol id="icon-ri-notification-off-line" viewBox="0 0 24 24">
      <path d="M18.586 20H4a.5.5 0 0 1-.4-.8l.4-.533V10c0-1.33.324-2.584.899-3.687L1.393 2.808l1.415-1.415 19.799 19.8-1.415 1.414L18.586 20zM6.408 7.822A5.985 5.985 0 0 0 6 10v8h10.586L6.408 7.822zM20 15.786l-2-2V10a6 6 0 0 0-8.99-5.203L7.56 3.345A8 8 0 0 1 20 10v5.786zM9.5 21h5a2.5 2.5 0 1 1-5 0z"/>
    </symbol>
    <symbol id="icon-ri-arrow-down-s-line" viewBox="0 0 24 24">
      <path d="M12 13.172l4.95-4.95 1.414 1.414L12 16 5.636 9.636 7.05 8.222z"/>
    </symbol>
    <symbol id="icon-ri-notification-all" viewBox="0 0 24 24">
      <path d="M18.3529 10.4706C18.3529 8.78568 17.6836 7.16979 16.4922 5.97838C15.3008 4.78697 13.6849 4.11765 12 4.11765C10.3151 4.11765 8.6992 4.78697 7.50779 5.97838C6.31639 7.16979 5.64706 8.78568 5.64706 10.4706V18.9412H18.3529V10.4706ZM20.4706 19.6474L20.8941 20.2118C20.9531 20.2904 20.989 20.3839 20.9979 20.4819C21.0067 20.5798 20.9881 20.6782 20.9441 20.7662C20.9001 20.8541 20.8326 20.9281 20.7489 20.9798C20.6653 21.0314 20.5689 21.0588 20.4706 21.0588H3.52941C3.43109 21.0588 3.33472 21.0314 3.25108 20.9798C3.16745 20.9281 3.09986 20.8541 3.05589 20.7662C3.01192 20.6782 2.99331 20.5798 3.00214 20.4819C3.01097 20.3839 3.04689 20.2904 3.10588 20.2118L3.52941 19.6474V10.4706C3.52941 8.22405 4.42185 6.06952 6.01039 4.48098C7.59893 2.89243 9.75346 2 12 2C14.2465 2 16.4011 2.89243 17.9896 4.48098C19.5782 6.06952 20.4706 8.22405 20.4706 10.4706V19.6474ZM9.35294 22.1176H14.6471C14.6471 22.8197 14.3682 23.493 13.8718 23.9894C13.3753 24.4858 12.702 24.7647 12 24.7647C11.298 24.7647 10.6247 24.4858 10.1282 23.9894C9.63183 23.493 9.35294 22.8197 9.35294 22.1176V22.1176Z"/>
      <path d="M15.2 13.58L13.22 11.18L16.22 10.38L15.76 8.96L12.88 10.08L13.06 7H11.58L11.76 10.1L8.86 8.96L8.4 10.38L11.38 11.18L9.44 13.58L10.64 14.44L12.3 11.84L14 14.44L15.2 13.58Z"/>
    </symbol>
    <symbol id="icon-ri-logout-box-line" viewBox="0 0 24 24">
      <path d="M4 18h2v2h12V4H6v2H4V3a1 1 0 0 1 1-1h14a1 1 0 0 1 1 1v18a1 1 0 0 1-1 1H5a1 1 0 0 1-1-1v-3zm2-7h7v2H6v3l-5-4 5-4v3z"/>
    </symbol>
    <symbol id="icon-ri-dashboard-3-line" viewBox="0 0 24 24">
      <path d="M12 2c5.523 0 10 4.477 10 10s-4.477 10-10 10S2 17.523 2 12 6.477 2 12 2zm0 2c-4.418 0-8 3.582-8 8s3.582 8 8 8 8-3.582 8-8-3.582-8-8-8zm3.833 3.337c.237-.166.559-.138.763.067.204.204.23.526.063.76-2.18 3.046-3.38 4.678-3.598 4.897-.586.585-1.536.585-2.122 0-.585-.586-.585-1.536 0-2.122.374-.373 2.005-1.574 4.894-3.602zM17.5 11c.552 0 1 .448 1 1s-.448 1-1 1-1-.448-1-1 .448-1 1-1zm-11 0c.552 0 1 .448 1 1s-.448 1-1 1-1-.448-1-1 .448-1 1-1zm2.318-3.596c.39.39.39 1.023 0 1.414-.39.39-1.024.39-1.414 0-.39-.39-.39-1.024 0-1.414.39-.39 1.023-.39 1.414 0zM12 5.5c.552 0 1 .448 1 1s-.448 1-1 1-1-.448-1-1 .448-1 1-1z"/>
    </symbol>
    <symbol id="icon-ri-check-fill" viewBox="0 0 24 24">
      <path d="M10 15.172l9.192-9.193 1.415 1.414L10 18l-6.364-6.364 1.414-1.414z"/>
    </symbol>
    <symbol id="icon-ri-mail-line" viewBox="0 0 24 24">
      <path d="M3 3h18a1 1 0 0 1 1 1v16a1 1 0 0 1-1 1H3a1 1 0 0 1-1-1V4a1 1 0 0 1 1-1zm17 4.238l-7.928 7.1L4 7.216V19h16V7.238zM4.511 5l7.55 6.662L19.502 5H4.511z"/>
    </symbol>
    <symbol id="icon-ri-arrow-right-s-fill" viewBox="0 0 24 24">
      <path d="M16 12l-6 6V6z"/>
    </symbol>
    <symbol id="icon-ri-share-box-line" viewBox="0 0 24 24">
      <path d="M10 3v2H5v14h14v-5h2v6a1 1 0 0 1-1 1H4a1 1 0 0 1-1-1V4a1 1 0 0 1 1-1h6zm7.586 2H13V3h8v8h-2V6.414l-7 7L10.586 12l7-7z"/>
    </symbol>
    <symbol id="icon-ri-double-quotes-l" viewBox="0 0 24 24">
      <path d="M4.583 17.321C3.553 16.227 3 15 3 13.011c0-3.5 2.457-6.637 6.03-8.188l.893 1.378c-3.335 1.804-3.987 4.145-4.247 5.621.537-.278 1.24-.375 1.929-.311 1.804.167 3.226 1.648 3.226 3.489a3.5 3.5 0 0 1-3.5 3.5c-1.073 0-2.099-.49-2.748-1.179zm10 0C13.553 16.227 13 15 13 13.011c0-3.5 2.457-6.637 6.03-8.188l.893 1.378c-3.335 1.804-3.987 4.145-4.247 5.621.537-.278 1.24-.375 1.929-.311 1.804.167 3.226 1.648 3.226 3.489a3.5 3.5 0 0 1-3.5 3.5c-1.073 0-2.099-.49-2.748-1.179z"/>
    </symbol>
    <symbol id="icon-ri-pantone-line" viewBox="0 0 24 24">
      <path d="M5.764 8l-.295-.73a1 1 0 0 1 .553-1.302l9.272-3.746a1 1 0 0 1 1.301.552l5.62 13.908a1 1 0 0 1-.553 1.302L12.39 21.73a1 1 0 0 1-1.302-.553L11 20.96V21H7a1 1 0 0 1-1-1v-.27l-3.35-1.353a1 1 0 0 1-.552-1.302L5.764 8zM8 19h2.209L8 13.533V19zm-2-6.244l-1.673 4.141L6 17.608v-4.852zm1.698-5.309l4.87 12.054 7.418-2.997-4.87-12.053-7.418 2.996zm2.978 2.033a1 1 0 1 1-.749-1.855 1 1 0 0 1 .75 1.855z"/>
    </symbol>
    <symbol id="icon-ri-calendar-todo-line" viewBox="0 0 24 24">
      <path d="M17 3h4a1 1 0 0 1 1 1v16a1 1 0 0 1-1 1H3a1 1 0 0 1-1-1V4a1 1 0 0 1 1-1h4V1h2v2h6V1h2v2zm-2 2H9v2H7V5H4v4h16V5h-3v2h-2V5zm5 6H4v8h16v-8zM6 14h2v2H6v-2zm4 0h8v2h-8v-2z"/>
    </symbol>
    <symbol id="icon-ri-sort-asc" viewBox="0 0 24 24">
      <path d="M19 3l4 5h-3v12h-2V8h-3l4-5zm-5 15v2H3v-2h11zm0-7v2H3v-2h11zm-2-7v2H3V4h9z"/>
    </symbol>
    <symbol id="icon-ri-user-fill" viewBox="0 0 24 24">
      <path d="M4 22a8 8 0 1 1 16 0H4zm8-9c-3.315 0-6-2.685-6-6s2.685-6 6-6 6 2.685 6 6-2.685 6-6 6z"/>
    </symbol>
    <symbol id="icon-ri-refresh-line" viewBox="0 0 24 24">
      <path d="M5.463 4.433A9.961 9.961 0 0 1 12 2c5.523 0 10 4.477 10 10 0 2.136-.67 4.116-1.81 5.74L17 12h3A8 8 0 0 0 6.46 6.228l-.997-1.795zm13.074 15.134A9.961 9.961 0 0 1 12 22C6.477 22 2 17.523 2 12c0-2.136.67-4.116 1.81-5.74L7 12H4a8 8 0 0 0 13.54 5.772l.997 1.795z"/>
    </symbol>
    <symbol id="icon-ri-gps" viewBox="0 0 24 24">
      <path d="M7.132 20.737A9.997 9.997 0 0 1 2 12C2 6.477 6.477 2 12 2s10 4.477 10 10a9.997 9.997 0 0 1-5.132 8.737l-.896-1.791a8 8 0 1 0-7.945 0l-.895 1.791zm1.792-3.584a6 6 0 1 1 6.151 0l-.898-1.797a4 4 0 1 0-4.354 0l-.899 1.797zM12 16l3 6H9l3-6z"/>
    </symbol>
    <symbol id="icon-ri-hashtag" viewBox="0 0 24 24">
      <path d="M7.784 14l.42-4H4V8h4.415l.525-5h2.011l-.525 5h3.989l.525-5h2.011l-.525 5H20v2h-3.784l-.42 4H20v2h-4.415l-.525 5h-2.011l.525-5H9.585l-.525 5H7.049l.525-5H4v-2h3.784zm2.011 0h3.99l.42-4h-3.99l-.42 4z"/>
    </symbol>
    <symbol id="icon-ri-arrow-down-s-fill" viewBox="0 0 24 24">
      <path d="M12 16l-6-6h12z"/>
    </symbol>
    <symbol id="icon-ri-pencil-fill" viewBox="0 0 24 24">
      <path d="M12.9 6.858l4.242 4.243L7.242 21H3v-4.243l9.9-9.9zm1.414-1.414l2.121-2.122a1 1 0 0 1 1.414 0l2.829 2.829a1 1 0 0 1 0 1.414l-2.122 2.121-4.242-4.242z"/>
    </symbol>
    <symbol id="icon-ri-close-fill" viewBox="0 0 24 24">
      <path d="M12 10.586l4.95-4.95 1.414 1.414-4.95 4.95 4.95 4.95-1.414 1.414-4.95-4.95-4.95 4.95-1.414-1.414 4.95-4.95-4.95-4.95L7.05 5.636z"/>
    </symbol>
    <symbol id="icon-ri-government-line" viewBox="0 0 24 24">
      <path d="M20 6h3v2h-1v11h1v2H1v-2h1V8H1V6h3V4a1 1 0 0 1 1-1h14a1 1 0 0 1 1 1v2zm0 2H4v11h3v-7h2v7h2v-7h2v7h2v-7h2v7h3V8zM6 5v1h12V5H6z"/>
    </symbol>
    <symbol id="icon-alert" viewBox="0 0 20 20">
      <path d="M19.64 16.36L11.53 2.3A1.85 1.85 0 0 0 10 1.21 1.85 1.85 0 0 0 8.48 2.3L.36 16.36C-.48 17.81.21 19 1.88 19h16.24c1.67 0 2.36-1.19 1.52-2.64zM11 16H9v-2h2zm0-4H9V6h2z"/>
    </symbol>
    <symbol id="icon-ri-auction-line" viewBox="0 0 20 20">
      <path d="M14.0049 20.0027V22.0027H2.00488V20.0027H14.0049ZM14.5907 0.688965L22.3688 8.46714L20.9546 9.88135L19.894 9.5278L17.4191 12.0027L23.076 17.6595L21.6617 19.0737L16.0049 13.4169L13.6007 15.821L13.8836 16.9524L12.4693 18.3666L4.69117 10.5885L6.10539 9.17425L7.23676 9.45709L13.53 3.16384L13.1765 2.10318L14.5907 0.688965ZM15.2978 4.2245L8.22671 11.2956L11.7622 14.8311L18.8333 7.76003L15.2978 4.2245Z" />
    </symbol>
    <symbol id="icon-ri-arrow-left-right-line" viewBox="0 0 20 20">
      <path d="M16.0503 12.0498L21 16.9996L16.0503 21.9493L14.636 20.5351L17.172 17.9988L4 17.9996V15.9996L17.172 15.9988L14.636 13.464L16.0503 12.0498ZM7.94975 2.0498L9.36396 3.46402L6.828 5.9988L20 5.99955V7.99955L6.828 7.9988L9.36396 10.5351L7.94975 11.9493L3 6.99955L7.94975 2.0498Z" />
    </symbol>
  </defs>
</svg>
